<svg xmlns:xlink="http://www.w3.org/1999/xlink" xmlns="http://www.w3.org/2000/svg" stroke-width="0.501" stroke-linejoin="bevel" fill-rule="evenodd" version="1.1" overflow="visible" viewBox="0 0 75 75" x="0px" y="0px"><g fill="none" stroke="black" font-family="Times New Roman" font-size="16" transform="scale(1 -1)"><g transform="translate(0 -75)"><g><path d="M 36.16,2.81 C 34.266,2.947 28.085,3.568 21.434,7.515 C 19.783,8.495 2.725,18.98 3.132,38.613 C 3.387,51.057 10.55,61.259 18.513,66.446 C 23.766,69.871 29.272,71.047 31.169,71.44 C 38.272,72.901 43.942,72.02 45.989,71.634 C 48.219,71.219 51.366,70.635 54.744,68.818 C 61.188,65.352 64.258,59.682 66.315,55.792 C 68.323,51.992 73.925,41.427 70.83,28.324 C 70.272,25.963 68.64,19.401 63.091,13.327 C 52.596,1.844 37.798,2.689 36.16,2.81 Z M 61.614,14.676 C 66.813,20.366 68.349,26.52 68.883,28.783 C 71.796,41.114 66.536,51.093 64.545,54.857 C 62.493,58.741 59.659,63.904 53.797,67.057 C 50.717,68.714 47.842,69.254 45.62,69.669 C 43.703,70.029 38.321,70.87 31.574,69.481 C 29.725,69.098 24.529,67.98 19.604,64.771 C 12.123,59.898 5.372,50.272 5.131,38.572 C 4.751,20.161 20.814,10.208 22.455,9.234 C 28.726,5.513 34.553,4.932 36.307,4.805 C 37.845,4.69 51.787,3.923 61.614,14.676 Z" stroke="none" fill="#000000" stroke-width="0.5" marker-start="none" marker-end="none" stroke-miterlimit="79.8403193612775"/><path d="M 32.633,26.314 C 29.527,28.053 26.993,31.454 26.799,35.378 C 26.668,38.011 27.636,40.051 28.033,40.872 C 28.507,41.845 29.741,44.063 32.21,45.666 C 32.775,46.033 37.869,49.255 43.214,46.483 C 48.793,43.588 49.096,37.04 49.107,36.733 C 49.246,32.648 47.241,28.522 43.532,26.348 C 38.268,23.264 33.014,26.101 32.633,26.314 Z M 42.521,28.073 C 45.54,29.843 47.225,33.246 47.108,36.664 C 47.098,36.944 46.785,42.377 42.293,44.708 C 38.032,46.918 33.852,44.348 33.299,43.989 C 31.272,42.672 30.236,40.828 29.832,39.999 C 29.465,39.238 28.691,37.582 28.796,35.477 C 28.952,32.347 31.006,29.516 33.608,28.059 C 33.927,27.882 38.266,25.581 42.521,28.073 Z" stroke="none" fill="#000000" stroke-width="0.5" marker-start="none" marker-end="none" stroke-miterlimit="79.8403193612775"/><path d="M 30.027,14.719 C 31.601,14.719 31.605,17.168 30.027,17.168 C 28.453,17.168 28.449,14.719 30.027,14.719 Z" stroke="none" fill="#000000" stroke-width="2" fill-rule="nonzero" stroke-linejoin="round" stroke-linecap="round" marker-start="none" marker-end="none" stroke-miterlimit="79.8403193612775"/><path d="M 39.263,12.587 L 39.454,12.587 C 41.029,12.587 41.032,15.034 39.454,15.034 L 39.263,15.034 C 37.687,15.034 37.685,12.587 39.263,12.587 Z" stroke="none" fill="#000000" stroke-width="2" fill-rule="nonzero" stroke-linejoin="round" stroke-linecap="round" marker-start="none" marker-end="none" stroke-miterlimit="79.8403193612775"/><path d="M 42.44,22.188 C 42.136,21.576 42.158,21.181 42.44,20.564 C 42.715,19.958 43.581,19.822 44.113,20.124 C 44.735,20.479 44.824,21.202 44.552,21.798 C 44.521,21.866 44.491,21.934 44.459,22.001 L 44.459,20.766 C 44.491,20.827 44.521,20.89 44.552,20.952 C 45.247,22.357 43.138,23.601 42.44,22.188 Z" stroke="none" fill="#000000" stroke-width="2" fill-rule="nonzero" stroke-linejoin="round" stroke-linecap="round" marker-start="none" marker-end="none" stroke-miterlimit="79.8403193612775"/><path d="M 49.652,18.795 C 51.227,18.795 51.231,21.24 49.652,21.24 C 48.079,21.24 48.076,18.795 49.652,18.795 Z" stroke="none" fill="#000000" stroke-width="2" fill-rule="nonzero" stroke-linejoin="round" stroke-linecap="round" marker-start="none" marker-end="none" stroke-miterlimit="79.8403193612775"/><path d="M 56.641,33.809 C 56.588,33.795 56.537,33.784 56.486,33.773 C 56.086,33.677 55.723,33.316 55.63,32.919 C 55.618,32.863 55.606,32.812 55.594,32.758 C 55.236,31.228 57.595,30.572 57.955,32.109 C 57.966,32.161 57.977,32.212 57.99,32.265 C 57.705,31.982 57.421,31.697 57.136,31.411 C 57.188,31.425 57.241,31.435 57.29,31.449 C 58.822,31.811 58.174,34.172 56.641,33.809 Z" stroke="none" fill="#000000" stroke-width="2" fill-rule="nonzero" stroke-linejoin="round" stroke-linecap="round" marker-start="none" marker-end="none" stroke-miterlimit="79.8403193612775"/><path d="M 59.276,21.9 C 60.85,21.9 60.852,24.346 59.276,24.346 C 57.701,24.346 57.697,21.9 59.276,21.9 Z" stroke="none" fill="#000000" stroke-width="2" fill-rule="nonzero" stroke-linejoin="round" stroke-linecap="round" marker-start="none" marker-end="none" stroke-miterlimit="79.8403193612775"/><path d="M 52.924,29.583 L 52.732,29.583 C 51.158,29.583 51.155,27.138 52.732,27.138 L 52.924,27.138 C 54.498,27.138 54.502,29.583 52.924,29.583 Z" stroke="none" fill="#000000" stroke-width="2" fill-rule="nonzero" stroke-linejoin="round" stroke-linecap="round" marker-start="none" marker-end="none" stroke-miterlimit="79.8403193612775"/><path d="M 58.889,41.686 L 59.082,41.686 C 60.656,41.686 60.658,44.133 59.082,44.133 L 58.889,44.133 C 57.315,44.133 57.314,41.686 58.889,41.686 Z" stroke="none" fill="#000000" stroke-width="2" fill-rule="nonzero" stroke-linejoin="round" stroke-linecap="round" marker-start="none" marker-end="none" stroke-miterlimit="79.8403193612775"/><path d="M 53.309,48.402 L 53.117,48.402 C 51.542,48.402 51.539,45.955 53.117,45.955 L 53.309,45.955 C 54.884,45.955 54.887,48.402 53.309,48.402 Z" stroke="none" fill="#000000" stroke-width="2" fill-rule="nonzero" stroke-linejoin="round" stroke-linecap="round" marker-start="none" marker-end="none" stroke-miterlimit="79.8403193612775"/><path d="M 50.422,59.536 C 51.997,59.536 52,61.983 50.422,61.983 C 48.848,61.983 48.847,59.536 50.422,59.536 Z" stroke="none" fill="#000000" stroke-width="2" fill-rule="nonzero" stroke-linejoin="round" stroke-linecap="round" marker-start="none" marker-end="none" stroke-miterlimit="79.8403193612775"/><path d="M 38.553,62.522 C 38.5,62.511 38.451,62.497 38.398,62.486 C 38.001,62.389 37.635,62.029 37.543,61.63 C 37.532,61.577 37.518,61.528 37.506,61.474 C 37.148,59.941 39.506,59.288 39.866,60.821 C 39.878,60.875 39.892,60.928 39.902,60.98 L 39.049,60.126 C 39.1,60.137 39.153,60.149 39.203,60.163 C 40.736,60.524 40.085,62.885 38.553,62.522 Z" stroke="none" fill="#000000" stroke-width="2" fill-rule="nonzero" stroke-linejoin="round" stroke-linecap="round" marker-start="none" marker-end="none" stroke-miterlimit="79.8403193612775"/><path d="M 40.156,55.135 L 40.156,54.94 C 40.156,53.366 42.603,53.362 42.603,54.94 L 42.603,55.135 C 42.603,56.709 40.156,56.71 40.156,55.135 Z" stroke="none" fill="#000000" stroke-width="2" fill-rule="nonzero" stroke-linejoin="round" stroke-linecap="round" marker-start="none" marker-end="none" stroke-miterlimit="79.8403193612775"/><path d="M 49.846,52.163 C 51.421,52.163 51.424,54.612 49.846,54.612 C 48.272,54.612 48.269,52.163 49.846,52.163 Z" stroke="none" fill="#000000" stroke-width="2" fill-rule="nonzero" stroke-linejoin="round" stroke-linecap="round" marker-start="none" marker-end="none" stroke-miterlimit="79.8403193612775"/><path d="M 60.168,52.804 L 60.168,52.611 C 60.168,51.036 62.616,51.032 62.616,52.611 L 62.616,52.804 C 62.616,54.379 60.168,54.383 60.168,52.804 Z" stroke="none" fill="#000000" stroke-width="2" fill-rule="nonzero" stroke-linejoin="round" stroke-linecap="round" marker-start="none" marker-end="none" stroke-miterlimit="79.8403193612775"/><path d="M 26.47,48.308 C 26.489,48.264 26.507,48.222 26.526,48.179 C 26.86,47.425 27.927,47.449 28.445,47.933 L 28.584,48.058 C 29.74,49.132 28.008,50.858 26.852,49.79 L 26.717,49.663 C 27.356,49.58 27.996,49.498 28.639,49.416 C 28.62,49.457 28.6,49.499 28.581,49.542 C 28.312,50.15 27.436,50.281 26.908,49.981 C 26.281,49.625 26.203,48.906 26.47,48.308 Z" stroke="none" fill="#000000" stroke-width="2" fill-rule="nonzero" stroke-linejoin="round" stroke-linecap="round" marker-start="none" marker-end="none" stroke-miterlimit="79.8403193612775"/><path d="M 28.101,55.268 L 28.294,55.268 C 29.868,55.268 29.872,57.715 28.294,57.715 L 28.101,57.715 C 26.527,57.715 26.525,55.268 28.101,55.268 Z" stroke="none" fill="#000000" stroke-width="2" fill-rule="nonzero" stroke-linejoin="round" stroke-linecap="round" marker-start="none" marker-end="none" stroke-miterlimit="79.8403193612775"/><path d="M 33.298,50.613 C 34.872,50.613 34.876,53.06 33.298,53.06 C 31.723,53.06 31.72,50.613 33.298,50.613 Z" stroke="none" fill="#000000" stroke-width="2" fill-rule="nonzero" stroke-linejoin="round" stroke-linecap="round" marker-start="none" marker-end="none" stroke-miterlimit="79.8403193612775"/><path d="M 29.739,65.503 C 29.674,65.44 29.61,65.375 29.545,65.311 C 28.436,64.194 30.165,62.459 31.277,63.582 C 31.341,63.646 31.404,63.71 31.469,63.774 C 32.578,64.892 30.849,66.627 29.739,65.503 Z" stroke="none" fill="#000000" stroke-width="2" fill-rule="nonzero" stroke-linejoin="round" stroke-linecap="round" marker-start="none" marker-end="none" stroke-miterlimit="79.8403193612775"/><path d="M 15.017,48.283 C 16.591,48.283 16.594,50.731 15.017,50.731 C 13.442,50.731 13.439,48.283 15.017,48.283 Z" stroke="none" fill="#000000" stroke-width="2" fill-rule="nonzero" stroke-linejoin="round" stroke-linecap="round" marker-start="none" marker-end="none" stroke-miterlimit="79.8403193612775"/><path d="M 19.418,43.555 C 19.429,43.502 19.442,43.449 19.453,43.397 C 19.548,42.999 19.91,42.638 20.309,42.543 C 20.36,42.532 20.413,42.518 20.464,42.506 C 21.996,42.144 22.65,44.503 21.116,44.866 C 21.064,44.879 21.012,44.89 20.959,44.903 C 21.245,44.618 21.529,44.333 21.813,44.047 C 21.801,44.101 21.79,44.153 21.776,44.206 C 21.42,45.737 19.059,45.089 19.418,43.555 Z" stroke="none" fill="#000000" stroke-width="2" fill-rule="nonzero" stroke-linejoin="round" stroke-linecap="round" marker-start="none" marker-end="none" stroke-miterlimit="79.8403193612775"/><path d="M 20.214,54.612 L 20.022,54.612 C 18.447,54.612 18.444,52.163 20.022,52.163 L 20.214,52.163 C 21.789,52.163 21.791,54.612 20.214,54.612 Z" stroke="none" fill="#000000" stroke-width="2" fill-rule="nonzero" stroke-linejoin="round" stroke-linecap="round" marker-start="none" marker-end="none" stroke-miterlimit="79.8403193612775"/><path d="M 14.537,32.91 C 14.475,32.845 14.409,32.782 14.347,32.716 C 13.236,31.598 14.965,29.866 16.077,30.986 C 16.139,31.051 16.204,31.116 16.268,31.18 C 17.379,32.298 15.649,34.032 14.537,32.91 Z" stroke="none" fill="#000000" stroke-width="2" fill-rule="nonzero" stroke-linejoin="round" stroke-linecap="round" marker-start="none" marker-end="none" stroke-miterlimit="79.8403193612775"/><path d="M 21.876,34.956 L 21.876,34.568 C 21.876,32.994 24.323,32.991 24.323,34.568 L 24.323,34.956 C 24.323,36.53 21.876,36.534 21.876,34.956 Z" stroke="none" fill="#000000" stroke-width="2" fill-rule="nonzero" stroke-linejoin="round" stroke-linecap="round" marker-start="none" marker-end="none" stroke-miterlimit="79.8403193612775"/><path d="M 22.455,25.06 L 22.455,24.672 C 22.455,23.097 24.9,23.093 24.9,24.672 L 24.9,25.06 C 24.9,26.635 22.455,26.638 22.455,25.06 Z" stroke="none" fill="#000000" stroke-width="2" fill-rule="nonzero" stroke-linejoin="round" stroke-linecap="round" marker-start="none" marker-end="none" stroke-miterlimit="79.8403193612775"/><path d="M 20.72,14.779 L 20.72,14.585 C 20.72,13.01 23.169,13.008 23.169,14.585 L 23.169,14.779 C 23.169,16.353 20.72,16.357 20.72,14.779 Z" stroke="none" fill="#000000" stroke-width="2" fill-rule="nonzero" stroke-linejoin="round" stroke-linecap="round" marker-start="none" marker-end="none" stroke-miterlimit="79.8403193612775"/><path d="M 10.332,39.806 L 10.332,39.613 C 10.332,38.039 12.778,38.038 12.778,39.613 L 12.778,39.806 C 12.778,41.38 10.332,41.383 10.332,39.806 Z" stroke="none" fill="#000000" stroke-width="2" fill-rule="nonzero" stroke-linejoin="round" stroke-linecap="round" marker-start="none" marker-end="none" stroke-miterlimit="79.8403193612775"/><path d="M 13.095,21.703 L 13.48,21.703 C 15.054,21.703 15.057,24.15 13.48,24.15 L 13.095,24.15 C 11.521,24.15 11.516,21.703 13.095,21.703 Z" stroke="none" fill="#000000" stroke-width="2" fill-rule="nonzero" stroke-linejoin="round" stroke-linecap="round" marker-start="none" marker-end="none" stroke-miterlimit="79.8403193612775"/><path d="M 33.683,20.464 L 33.566,20.464 C 31.991,20.464 31.988,18.017 33.566,18.017 L 33.877,18.017 C 35.451,18.017 35.453,20.464 33.877,20.464 L 33.566,20.464 C 31.991,20.464 31.988,18.017 33.566,18.017 L 33.683,18.017 C 35.257,18.017 35.26,20.464 33.683,20.464 Z" stroke="none" fill="#000000" stroke-width="2" fill-rule="nonzero" stroke-linejoin="round" stroke-linecap="round" marker-start="none" marker-end="none" stroke-miterlimit="79.8403193612775"/><path d="M 35.799,8.511 C 37.374,8.511 37.377,10.958 35.799,10.958 C 34.225,10.958 34.222,8.511 35.799,8.511 Z" stroke="none" fill="#000000" stroke-width="2" fill-rule="nonzero" stroke-linejoin="round" stroke-linecap="round" marker-start="none" marker-end="none" stroke-miterlimit="79.8403193612775"/><path d="M 51.576,10.257 L 51.77,10.257 C 53.344,10.257 53.346,12.704 51.77,12.704 L 51.576,12.704 C 50.002,12.704 50,10.257 51.576,10.257 Z" stroke="none" fill="#000000" stroke-width="2" fill-rule="nonzero" stroke-linejoin="round" stroke-linecap="round" marker-start="none" marker-end="none" stroke-miterlimit="79.8403193612775"/><path d="M 64.758,30.794 C 64.821,30.859 64.886,30.922 64.949,30.987 C 66.059,32.108 64.329,33.838 63.22,32.717 C 63.156,32.652 63.092,32.588 63.028,32.523 C 61.916,31.406 63.646,29.672 64.758,30.794 Z" stroke="none" fill="#000000" stroke-width="2" fill-rule="nonzero" stroke-linejoin="round" stroke-linecap="round" marker-start="none" marker-end="none" stroke-miterlimit="79.8403193612775"/><path d="M 53.502,36.836 C 55.077,36.836 55.081,39.283 53.502,39.283 C 51.928,39.283 51.925,36.836 53.502,36.836 Z" stroke="none" fill="#000000" stroke-width="2" fill-rule="nonzero" stroke-linejoin="round" stroke-linecap="round" marker-start="none" marker-end="none" stroke-miterlimit="79.8403193612775"/></g></g></g></svg>